<mxfile host="app.diagrams.net" modified="2023-08-25T16:48:22.075Z" agent="Mozilla/5.0 (Windows NT 10.0; Win64; x64) AppleWebKit/537.36 (KHTML, like Gecko) Chrome/116.0.0.0 Safari/537.36" etag="9a3CyoCdhGdsWx9H9OF6" version="21.6.9" type="device">
  <diagram name="Página-1" id="sChBNZcs_D44exhzbZ3m">
    <mxGraphModel dx="553" dy="302" grid="1" gridSize="10" guides="1" tooltips="1" connect="1" arrows="1" fold="1" page="1" pageScale="1" pageWidth="827" pageHeight="1169" math="0" shadow="0">
      <root>
        <mxCell id="0" />
        <mxCell id="1" parent="0" />
        <mxCell id="HeuFeZUhg11P99ctpCNu-1" value="Tigre" style="swimlane;fontStyle=1;align=center;verticalAlign=top;childLayout=stackLayout;horizontal=1;startSize=26;horizontalStack=0;resizeParent=1;resizeParentMax=0;resizeLast=0;collapsible=1;marginBottom=0;whiteSpace=wrap;html=1;" vertex="1" parent="1">
          <mxGeometry x="140" y="80" width="220" height="270" as="geometry" />
        </mxCell>
        <mxCell id="HeuFeZUhg11P99ctpCNu-2" value="+ Sexo: string&lt;br&gt;+ Idade: int&lt;br&gt;+ Região: string&lt;br&gt;+ Tamanho: int&lt;br&gt;+ Peso: int&lt;br&gt;+ Subespécie: string&lt;br&gt;+ Listras: string&lt;br&gt;+ Cheiro: string&lt;br&gt;&lt;br&gt;+ Correr() : void&lt;br&gt;+ Caçar() : void&lt;br&gt;+ Comer() : void&lt;br&gt;+ Dormir() : void&lt;br&gt;+ Procriar() : void&lt;br&gt;+ Nadar() : void&lt;br&gt;+ Marcar território() : void" style="text;strokeColor=none;fillColor=none;align=left;verticalAlign=top;spacingLeft=4;spacingRight=4;overflow=hidden;rotatable=0;points=[[0,0.5],[1,0.5]];portConstraint=eastwest;whiteSpace=wrap;html=1;" vertex="1" parent="HeuFeZUhg11P99ctpCNu-1">
          <mxGeometry y="26" width="220" height="244" as="geometry" />
        </mxCell>
        <mxCell id="HeuFeZUhg11P99ctpCNu-6" value="" style="line;strokeWidth=1;fillColor=none;align=left;verticalAlign=middle;spacingTop=-1;spacingLeft=3;spacingRight=3;rotatable=0;labelPosition=right;points=[];portConstraint=eastwest;strokeColor=inherit;" vertex="1" parent="1">
          <mxGeometry x="140" y="230" width="220" height="8" as="geometry" />
        </mxCell>
      </root>
    </mxGraphModel>
  </diagram>
</mxfile>
